<svg width="902" height="182" fill="none" xmlns="http://www.w3.org/2000/svg"><g clip-path="url(#prefix__clip0_2_82)"><path d="M158.169 5H55.26C34.682 5 18 21.682 18 42.26V145.17c0 20.578 16.682 37.26 37.26 37.26H158.17c20.578 0 37.26-16.682 37.26-37.26V42.26c0-20.578-16.682-37.26-37.26-37.26z" fill="#FF585F"/><path d="M76.706 81.72c1.627 0 3.181-.216 4.664-.647h.054l.072-.017a17.935 17.935 0 002.618-.951l.359-.18 1.04-.538.198-.125a17.52 17.52 0 002.152-1.453l.072-.072a9.67 9.67 0 00.77-.663l.414-.377c.239-.215.466-.448.68-.7l.396-.43.627-.753.341-.449.574-.825.233-.376a19.144 19.144 0 001.525-3.103l.233-.646.233-.807c.24-.83.42-1.674.538-2.529 0-.215.018-.424.053-.627.06-.55.09-1.107.09-1.669a17.936 17.936 0 00-20.016-17.81l-.538.09a17.933 17.933 0 00-3.533.896l-.592.215c-.61.24-1.202.515-1.776.826l-.072.035-.287.18c-.478.275-.932.562-1.362.86l-.718.539-.825.682-.753.681-.682.718a17.942 17.942 0 00-1.721 2.188l-.449.717-.61 1.13-.305.61a18.32 18.32 0 00-.646 1.632l-.071.215a17.936 17.936 0 00-.861 4.376v.036l-.055 1.184c0 9.883 8.054 17.936 17.936 17.936zM63.434 58.402c.096-.276.204-.533.323-.772l.27-.538.268-.484.467-.753.179-.288.663-.86.144-.18.772-.843.16-.144c.264-.274.54-.531.826-.77l.25-.18.557-.43 1.614 2.977 3.64 6.637-10.94-.718c.18-.848.419-1.662.717-2.44l.09-.214zm-1.04 6.223l12.914.861 3.408 12.484a12.46 12.46 0 01-2.01.16 14.349 14.349 0 01-14.312-13.505zm28.661-.843a14.349 14.349 0 01-3.659 9.542l-.16.18a14.465 14.465 0 01-3.068 2.51l-.161.09c-.574.359-1.184.67-1.83.932l-3.73-13.72-.18-.395L71.47 50.44l.538-.179c.192-.084.39-.155.592-.216l.682-.18.664-.16a7.23 7.23 0 01.771-.108l.592-.09c.466-.048.932-.071 1.398-.071a14.349 14.349 0 0114.349 14.348z" fill="#fff"/><path d="M150.243 38.673H60.564a8.968 8.968 0 00-8.968 8.968v68.156a8.968 8.968 0 008.968 8.968h39.459v7.174H85.674a8.967 8.967 0 00-8.968 8.968v3.587a1.796 1.796 0 001.794 1.794h53.807a1.793 1.793 0 001.794-1.794v-3.587a8.968 8.968 0 00-8.968-8.968h-14.349v-7.174h39.459a8.968 8.968 0 008.968-8.968V47.641a8.968 8.968 0 00-8.968-8.968zM60.564 42.26h89.679a5.382 5.382 0 015.381 5.381v62.775H55.184V47.641a5.38 5.38 0 015.38-5.38zm69.95 98.647v1.794h-50.22v-1.794a5.383 5.383 0 015.38-5.381h39.459a5.387 5.387 0 014.971 3.322c.27.653.41 1.353.41 2.059zm-23.317-8.968h-3.587v-7.174h3.587v7.174zm48.427-16.142a5.382 5.382 0 01-5.381 5.381H60.564a5.381 5.381 0 01-5.38-5.381v-1.794h100.44v1.794z" fill="#fff"/><path d="M100.023 106.829h52.014v-3.587h-50.221V45.847h-3.587v59.189a1.795 1.795 0 001.794 1.793zm-39.459 0H92.85a1.795 1.795 0 001.793-1.793V87.1a1.793 1.793 0 00-1.793-1.794H60.564A1.793 1.793 0 0058.77 87.1v17.936a1.795 1.795 0 001.794 1.793zm1.794-17.936h28.697v14.349H62.358V88.893z" fill="#fff"/><path d="M113.063 88.337l5.416 5.417a1.796 1.796 0 002.349.161l7.175-5.38c.31-.233.537-.56.646-.933l6.851-23.316 4.018 21.343a1.797 1.797 0 003.031.95l8.968-8.967-2.547-2.547-6.565 6.564-4.753-25.343a1.794 1.794 0 00-3.479-.18l-8.788 29.918-5.471 4.088-6.062-6.08a1.794 1.794 0 00-2.87.467l-7.174 14.349 3.192 1.614 6.063-12.125zM299.424 41.496l-4.096 16.768c-2.304-.896-4.992-1.536-7.424-1.536-4.992 0-8.064 2.688-8.064 9.984v3.456h12.928V87.96H279.84V143h-22.784V87.96h-9.728V71.064l9.728-.768v-2.944c0-15.36 7.296-28.416 27.52-28.416 6.4 0 11.52 1.28 14.848 2.56zm34.908 103.296c-18.56 0-35.712-14.08-35.712-38.144 0-24.192 17.152-38.272 35.712-38.272 18.432 0 35.584 14.08 35.584 38.272 0 24.064-17.152 38.144-35.584 38.144zm0-18.432c8.448 0 12.288-7.68 12.288-19.712 0-12.16-3.84-19.84-12.288-19.84-8.576 0-12.416 7.68-12.416 19.84 0 12.032 3.84 19.712 12.416 19.712zM384.216 143V70.168h18.56l1.536 12.672h.512c5.376-9.728 13.44-14.464 20.736-14.464 4.352 0 6.784.64 8.832 1.536l-3.84 19.584c-2.56-.64-4.736-1.152-7.936-1.152-5.376 0-11.904 3.456-15.744 13.056V143h-22.656zm59.375 0V40.728h22.144v57.088h.512l22.144-27.648h24.704l-25.728 30.08L514.887 143h-24.704l-15.744-27.648-8.704 9.856V143h-22.144zm105.737 30.592c-16.768 0-30.592-5.248-30.592-18.304 0-6.016 3.584-10.88 10.368-14.336v-.64c-3.84-2.56-6.656-6.4-6.656-12.544 0-5.12 3.328-10.24 8.064-13.568v-.512c-5.12-3.584-9.856-10.368-9.856-18.816 0-17.792 14.72-26.496 30.464-26.496 4.224 0 8.192.64 11.52 1.792h26.752V86.68h-11.264c1.152 2.048 2.048 5.376 2.048 8.832 0 17.024-12.928 24.448-29.056 24.448-2.432 0-5.376-.384-8.576-1.28-1.664 1.536-2.304 2.688-2.304 5.12 0 3.328 2.944 4.864 10.752 4.864h11.52c17.92 0 28.032 5.504 28.032 18.688 0 15.36-15.872 26.24-41.216 26.24zm1.792-67.328c5.376 0 9.216-3.84 9.216-11.392 0-7.424-3.84-11.264-9.216-11.264-5.248 0-9.216 3.84-9.216 11.264 0 7.552 3.968 11.392 9.216 11.392zm1.792 53.12c9.344 0 15.872-3.456 15.872-8.064 0-4.352-3.84-5.248-10.624-5.248h-6.912c-5.248 0-8.064-.256-10.368-.896-2.304 2.048-3.456 4.096-3.456 6.528 0 5.12 6.144 7.68 15.488 7.68zm69.915-14.592c-15.616 0-20.736-10.24-20.736-25.472V40.728h22.656v79.488c0 4.736 2.304 6.144 4.096 6.144.768 0 1.28 0 2.56-.256l2.688 16.768c-2.432 1.024-6.272 1.92-11.264 1.92zm53.38 0c-18.56 0-35.712-14.08-35.712-38.144 0-24.192 17.152-38.272 35.712-38.272 18.432 0 35.584 14.08 35.584 38.272 0 24.064-17.152 38.144-35.584 38.144zm0-18.432c8.448 0 12.288-7.68 12.288-19.712 0-12.16-3.84-19.84-12.288-19.84-8.576 0-12.416 7.68-12.416 19.84 0 12.032 3.84 19.712 12.416 19.712zM741.484 143l-24.192-72.832h22.912l8.832 33.536c1.792 7.168 3.584 14.72 5.504 22.4h.64c1.664-7.68 3.584-15.232 5.376-22.4l8.96-33.536h21.888L767.852 143h-26.368zm92.503 1.792c-20.864 0-36.992-14.08-36.992-38.144 0-23.68 16.896-38.272 34.56-38.272 20.992 0 31.232 15.232 31.232 35.2 0 3.968-.512 8.064-1.024 9.728h-42.752c2.048 9.984 8.96 14.08 18.176 14.08 5.248 0 10.112-1.536 15.36-4.608l7.552 13.696c-7.552 5.376-17.536 8.32-26.112 8.32zm-15.36-46.336h24.832c0-7.296-3.2-12.672-11.52-12.672-6.272 0-11.776 3.968-13.312 12.672z" fill="#fff"/></g><defs><clipPath id="prefix__clip0_2_82"><path fill="#fff" d="M0 0h902v182H0z"/></clipPath></defs></svg>