<svg width="400" height="400" fill="none" xmlns="http://www.w3.org/2000/svg"><path d="M316 0H84C37.608 0 0 37.608 0 84v232c0 46.392 37.608 84 84 84h232c46.392 0 84-37.608 84-84V84c0-46.392-37.608-84-84-84z" fill="#FF585F"/><path d="M132.349 172.957c3.666 0 7.171-.486 10.513-1.457h.122l.163-.039a40.435 40.435 0 005.902-2.143l.809-.405 2.345-1.213.446-.282a39.513 39.513 0 004.852-3.276l.161-.161a21.852 21.852 0 001.739-1.496l.93-.85a16.834 16.834 0 001.535-1.576l.891-.972 1.414-1.698.769-1.01 1.294-1.861.526-.848a43.242 43.242 0 003.437-6.996l.526-1.456.526-1.82a40.442 40.442 0 001.213-5.7c0-.485.04-.957.119-1.415.135-1.241.203-2.494.203-3.761a40.43 40.43 0 00-13.556-30.198 40.44 40.44 0 00-31.568-9.954l-1.213.202a40.448 40.448 0 00-7.966 2.022l-1.334.485a35.804 35.804 0 00-4.005 1.86l-.161.08-.647.405a42.308 42.308 0 00-3.072 1.941l-1.618 1.214-1.86 1.537-1.698 1.536-1.537 1.618a40.366 40.366 0 00-3.88 4.932l-1.011 1.618-1.377 2.548-.687 1.374a41.222 41.222 0 00-1.456 3.68l-.16.485a40.437 40.437 0 00-1.942 9.865v.08l-.122 2.67c0 22.28 18.157 40.435 40.435 40.435zm-29.922-52.565c.218-.621.46-1.2.728-1.74l.609-1.213.604-1.091 1.052-1.698.405-.648 1.496-1.941.323-.404 1.74-1.9.363-.324a23.201 23.201 0 011.86-1.739l.566-.402 1.254-.972 3.639 6.713 8.207 14.961-24.666-1.618a36.449 36.449 0 011.618-5.5l.202-.484zm-2.343 14.03l29.113 1.941 7.682 28.144a28.073 28.073 0 01-4.53.363 32.346 32.346 0 01-32.265-30.448zm64.613-1.9a32.35 32.35 0 01-8.248 21.511l-.363.404a32.62 32.62 0 01-6.916 5.661l-.363.202a26.783 26.783 0 01-4.126 2.102l-8.408-30.932-.405-.889-15.326-28.142 1.213-.404c.432-.188.877-.351 1.335-.487l1.537-.404 1.496-.363a16.122 16.122 0 011.739-.244l1.335-.202a31.077 31.077 0 013.152-.161 32.345 32.345 0 0122.873 9.475 32.345 32.345 0 019.475 22.873z" fill="#fff"/><path d="M298.131 75.913H95.957A20.218 20.218 0 0075.74 96.131v153.652A20.219 20.219 0 0095.957 270h88.957v16.174h-32.348a20.217 20.217 0 00-20.217 20.218v8.087a4.046 4.046 0 004.043 4.043h121.304a4.047 4.047 0 004.044-4.043v-8.087a20.215 20.215 0 00-20.218-20.218h-32.347V270h88.956a20.218 20.218 0 0020.218-20.217V96.131a20.216 20.216 0 00-20.218-20.218zM95.957 84h202.174a12.132 12.132 0 0112.131 12.13v141.522H83.827V96.131A12.13 12.13 0 0195.957 84zm157.696 222.392v4.043H140.436v-4.043a12.128 12.128 0 0112.13-12.131h88.956a12.13 12.13 0 0112.131 12.131zm-52.565-20.218h-8.087V270h8.087v16.174zm109.174-36.391a12.13 12.13 0 01-12.131 12.13H95.957a12.13 12.13 0 01-12.13-12.13v-4.044h226.435v4.044z" fill="#fff"/><path d="M184.914 229.565h117.261v-8.087H188.957V92.088h-8.086v133.434a4.04 4.04 0 004.043 4.043zm-88.956 0h72.782a4.044 4.044 0 004.044-4.043v-40.435a4.041 4.041 0 00-4.044-4.043H95.957a4.045 4.045 0 00-4.043 4.043v40.435a4.043 4.043 0 004.043 4.043zM100 189.131h64.696v32.347h-64.696v-32.347z" fill="#fff"/><path d="M214.312 187.876l12.211 12.214a4.043 4.043 0 005.295.363l16.174-12.131a4.05 4.05 0 001.457-2.102l15.445-52.565 9.059 48.117a4.048 4.048 0 002.768 3.137 4.044 4.044 0 004.065-.993l20.217-20.218-5.741-5.743-14.8 14.8-10.715-57.135a4.049 4.049 0 00-3.764-3.278 4.047 4.047 0 00-4.08 2.874l-19.813 67.445-12.333 9.218-13.667-13.707a4.039 4.039 0 00-3.504-1.127 4.05 4.05 0 00-2.966 2.179l-16.173 32.348 7.195 3.639 13.67-27.335z" fill="#fff"/></svg>